<svg width="17" height="27" viewBox="0 0 17 27" fill="none" xmlns="http://www.w3.org/2000/svg">
<path d="M16.4155 14.5154L5.48523 25.754C4.95808 26.296 4.10342 26.296 3.57632 25.754L2.30148 24.4432C1.77523 23.9021 1.77421 23.0251 2.29923 22.4827L10.9617 13.534L2.29923 4.58525C1.77421 4.04288 1.77523 3.1659 2.30148 2.6248L3.57632 1.31399C4.10348 0.771963 4.95813 0.771963 5.48523 1.31399L16.4155 12.5526C16.9426 13.0946 16.9426 13.9734 16.4155 14.5154Z" fill="black"/>
<path d="M8.18734 14.0626L2.29999 20.116C2.01605 20.408 1.55571 20.408 1.2718 20.116L0.585141 19.41C0.301685 19.1185 0.30114 18.6462 0.583929 18.354L5.24975 13.534L0.583929 8.71398C0.30114 8.42184 0.301685 7.94948 0.585141 7.65803L1.2718 6.952C1.55574 6.66004 2.01608 6.66004 2.29999 6.952L8.18731 13.0054C8.47125 13.2973 8.47125 13.7707 8.18734 14.0626Z" fill="white"/>
</svg>
