<svg width="17" height="21" viewBox="0 0 17 21" fill="none" xmlns="http://www.w3.org/2000/svg">
<path d="M1.75196 18.4153C-0.449219 16.1441 -0.408194 12.4815 1.80418 10.2186L9.70628 2.13561C11.3758 0.427855 14.0895 0.427704 15.7591 2.13561C17.4125 3.82686 17.4145 6.55564 15.7591 8.24889L8.87078 15.288C7.74608 16.4384 5.90851 16.4223 4.80288 15.2504C3.7377 14.1214 3.77187 12.3318 4.85758 11.2213L10.2727 5.68967C10.5056 5.45181 10.8872 5.44774 11.125 5.68059L11.9863 6.52365C12.2242 6.75654 12.2282 7.13816 11.9953 7.37602L6.58081 12.9071C6.39501 13.0971 6.38356 13.4129 6.5564 13.5962C6.7211 13.7708 6.98002 13.7737 7.1474 13.6024L14.0357 6.56332C14.7746 5.80755 14.7746 4.57706 14.0353 3.82087C13.3124 3.08148 12.1533 3.0811 11.4301 3.82087L3.52798 11.9038C2.21838 13.2434 2.19819 15.4118 3.48311 16.7376C4.76434 18.0596 6.83536 18.0613 8.11896 16.7484L14.6008 10.1181C14.8335 9.88009 15.2151 9.87579 15.4532 10.1085L16.315 10.951C16.5531 11.1837 16.5574 11.5653 16.3247 11.8034L9.8428 18.4336C7.59845 20.7292 3.9681 20.702 1.75196 18.4153Z" fill="#A8A8A8"/>
</svg>
