<svg width="15" height="22" viewBox="0 0 15 22" fill="none" xmlns="http://www.w3.org/2000/svg">
<path d="M0.661811 11.801L9.99228 21.3946C10.4423 21.8573 11.1718 21.8573 11.6218 21.3946L12.71 20.2757C13.1593 19.8138 13.1601 19.0652 12.7119 18.6022L5.31739 10.9632L12.7119 3.32431C13.1601 2.86132 13.1593 2.11271 12.71 1.6508L11.6218 0.531858C11.1718 0.0691639 10.4422 0.0691639 9.99228 0.531858L0.66186 10.1255C0.211862 10.5881 0.211861 11.3383 0.661811 11.801Z" fill="#FCDA64"/>
<path d="M7.68564 11.4145L12.7113 16.5819C12.9537 16.8311 13.3466 16.8311 13.589 16.5819L14.1751 15.9792C14.4171 15.7304 14.4176 15.3271 14.1762 15.0778L10.1933 10.9632L14.1762 6.84871C14.4176 6.59933 14.4171 6.19611 14.1751 5.94731L13.589 5.34462C13.3466 5.0954 12.9536 5.0954 12.7113 5.34462L7.68567 10.512C7.44329 10.7612 7.44329 11.1652 7.68564 11.4145Z" fill="white"/>
</svg>
