<svg width="24" height="18" viewBox="0 0 24 18" fill="none" xmlns="http://www.w3.org/2000/svg">
<path d="M23.91 8.58C21.94 4.31 17.5 0 12 0C6.5 0 2.06 4.31 0.09 8.58C0.0306734 8.71207 0 8.85522 0 9C0 9.14478 0.0306734 9.28793 0.09 9.42C2.06 13.69 6.5 18 12 18C17.5 18 21.94 13.69 23.91 9.42C23.9693 9.28793 24 9.14478 24 9C24 8.85522 23.9693 8.71207 23.91 8.58ZM12 14C11.0111 14 10.0444 13.7068 9.22215 13.1573C8.3999 12.6079 7.75904 11.827 7.3806 10.9134C7.00216 9.99979 6.90315 8.99445 7.09607 8.02455C7.289 7.05464 7.7652 6.16373 8.46447 5.46447C9.16373 4.7652 10.0546 4.289 11.0245 4.09607C11.9945 3.90315 12.9998 4.00216 13.9134 4.3806C14.827 4.75904 15.6079 5.3999 16.1573 6.22215C16.7068 7.04439 17 8.01109 17 9C16.9984 10.3256 16.4711 11.5964 15.5338 12.5338C14.5964 13.4711 13.3256 13.9984 12 14Z" fill="black"/>
<path d="M12 12C13.6569 12 15 10.6569 15 9C15 7.34315 13.6569 6 12 6C10.3431 6 9 7.34315 9 9C9 10.6569 10.3431 12 12 12Z" fill="black"/>
</svg>
