<svg width="28" height="29" viewBox="0 0 28 29" fill="none" xmlns="http://www.w3.org/2000/svg">
<g filter="url(#filter0_d_446_214)">
<path d="M11.178 7.198C10.9958 7.36185 10.8157 7.5298 10.6376 7.70182C10.4258 7.13705 9.02367 4.61179 9.39075 0.71238C9.39075 0.707298 9.39177 0.701199 9.39177 0.696117C9.61671 0.801986 9.84568 0.90375 10.0747 1.00043C10.4299 1.15411 10.6691 1.56227 10.6721 2.01725C10.6762 3.41373 10.9236 4.78271 11.406 6.08551C11.5556 6.49058 11.464 6.93743 11.178 7.198ZM23.5268 14.452C23.3741 14.0978 22.965 13.8576 22.51 13.8556C21.1136 13.8515 19.7447 13.6041 18.4419 13.1217C18.0368 12.9721 17.59 13.0637 17.3285 13.3497C17.1656 13.5319 16.9977 13.7131 16.8267 13.8902C16.8359 13.8932 16.844 13.8973 16.8522 13.9014C20.406 15.6074 23.6023 15.135 23.8311 15.135C23.7253 14.9101 23.6235 14.6821 23.5268 14.452ZM23.9736 15.4515C23.9669 15.3889 23.9106 15.3306 23.8352 15.3386C21.3966 15.5676 18.9488 15.134 16.7585 14.0826C16.6977 14.0511 16.6206 14.0774 16.5896 14.1416C16.3636 14.6149 16.1367 15.0892 15.9097 15.5635C15.8221 15.7467 15.596 15.8324 15.411 15.7355C12.5663 14.2505 10.2773 11.9614 8.79231 9.11659C8.69458 8.92999 8.78317 8.70542 8.96432 8.61887C10.9193 7.67992 10.2334 8.0093 10.3841 7.93689C10.449 7.90664 10.4744 7.82641 10.4442 7.76793C9.39279 5.57755 8.95819 3.12966 9.18821 0.690956C9.19533 0.621758 9.14447 0.559636 9.07527 0.55256C9.04458 0.5569 6.81654 0.192144 5.14558 2.08235C4.16958 3.18873 3.79198 4.64627 4.11051 6.08141C5.69312 13.1902 11.3087 18.8276 18.445 20.4165C21.4951 21.0933 24.3031 18.5642 23.9736 15.4515ZM15.8578 3.54192C15.4456 3.54192 15.1097 3.87782 15.1097 4.29004C15.1097 4.69717 15.4373 5.03812 15.8578 5.03812C17.8597 5.03918 19.4882 6.66768 19.4882 8.67079C19.4882 9.08445 19.8246 9.41887 20.2363 9.41887C20.6485 9.41887 20.9843 9.083 20.9843 8.67079C20.9843 5.83984 18.6858 3.54192 15.8578 3.54192ZM15.8578 5.77709C15.4359 5.77709 15.1097 6.12089 15.1097 6.52518C15.1097 6.93739 15.4456 7.27326 15.8578 7.27326C16.6287 7.27326 17.2532 7.90234 17.2532 8.67075C17.2532 9.08296 17.5891 9.41883 18.0013 9.41883C18.4127 9.41883 18.7493 9.08511 18.7493 8.67075C18.7493 7.08971 17.4703 5.77709 15.8578 5.77709ZM15.0924 8.19445C14.7525 8.5354 14.7535 9.09114 15.0955 9.43314C15.4287 9.76435 15.9734 9.78644 16.331 9.43314C16.673 9.09114 16.6741 8.5354 16.3341 8.19445C15.9911 7.85245 15.4344 7.85245 15.0924 8.19445ZM15.8588 1.30678H15.8578C15.4458 1.30678 15.1097 1.64143 15.1097 2.0549C15.1097 2.46567 15.4407 2.80298 15.8578 2.80298C19.0967 2.80298 21.7232 5.43619 21.7232 8.67079C21.7232 9.07487 22.0491 9.41785 22.4713 9.41785C22.8835 9.41785 23.2194 9.083 23.2194 8.67079C23.2194 4.60569 19.9175 1.30678 15.8588 1.30678Z" fill="url(#paint0_linear_446_214)"/>
</g>
<defs>
<filter id="filter0_d_446_214" x="0" y="0.526974" width="28" height="28" filterUnits="userSpaceOnUse" color-interpolation-filters="sRGB">
<feFlood flood-opacity="0" result="BackgroundImageFix"/>
<feColorMatrix in="SourceAlpha" type="matrix" values="0 0 0 0 0 0 0 0 0 0 0 0 0 0 0 0 0 0 127 0" result="hardAlpha"/>
<feOffset dy="4"/>
<feGaussianBlur stdDeviation="2"/>
<feComposite in2="hardAlpha" operator="out"/>
<feColorMatrix type="matrix" values="0 0 0 0 0 0 0 0 0 0 0 0 0 0 0 0 0 0 0.25 0"/>
<feBlend mode="normal" in2="BackgroundImageFix" result="effect1_dropShadow_446_214"/>
<feBlend mode="normal" in="SourceGraphic" in2="effect1_dropShadow_446_214" result="shape"/>
</filter>
<linearGradient id="paint0_linear_446_214" x1="14" y1="0.526992" x2="14" y2="20.527" gradientUnits="userSpaceOnUse">
<stop stop-color="#088F98"/>
<stop offset="0.547" stop-color="#1EA5D9"/>
<stop offset="1" stop-color="#4EAEFF"/>
</linearGradient>
</defs>
</svg>
