<svg width="21" height="21" viewBox="0 0 21 21" fill="none" xmlns="http://www.w3.org/2000/svg">
<path d="M10.3789 0C4.6454 0 -1.33514e-05 4.64541 -1.33514e-05 10.3789C-1.33514e-05 16.1125 4.6454 20.7579 10.3789 20.7579C16.1124 20.7579 20.7579 16.1125 20.7579 10.3789C20.7579 4.64541 16.1124 0 10.3789 0ZM10.3789 18.749C5.75444 18.749 2.00881 15.0034 2.00881 10.3789C2.00881 5.75445 5.75444 2.00883 10.3789 2.00883C15.0034 2.00883 18.749 5.75445 18.749 10.3789C18.749 15.0034 15.0034 18.749 10.3789 18.749ZM14.6393 7.77583L12.0362 10.3789L14.6393 12.982C14.836 13.1787 14.836 13.4968 14.6393 13.6935L13.6935 14.6393C13.4968 14.836 13.1787 14.836 12.982 14.6393L10.3789 12.0362L7.77582 14.6393C7.57912 14.836 7.26106 14.836 7.06436 14.6393L6.11854 13.6935C5.92184 13.4968 5.92184 13.1787 6.11854 12.982L8.72164 10.3789L6.11854 7.77583C5.92184 7.57913 5.92184 7.26107 6.11854 7.06437L7.06436 6.11855C7.26106 5.92185 7.57912 5.92185 7.77582 6.11855L10.3789 8.72165L12.982 6.11855C13.1787 5.92185 13.4968 5.92185 13.6935 6.11855L14.6393 7.06437C14.836 7.26107 14.836 7.57913 14.6393 7.77583Z" fill="#FCDA64"/>
</svg>
