<svg width="21" height="21" viewBox="0 0 21 21" fill="none" xmlns="http://www.w3.org/2000/svg">
<path d="M18.1649 12.11C17.9354 12.11 17.7154 12.2011 17.5532 12.3633C17.391 12.5256 17.2999 12.7456 17.2999 12.975V16.435C17.2999 16.6644 17.2087 16.8844 17.0465 17.0466C16.8843 17.2088 16.6643 17.3 16.4349 17.3H4.32486C4.09545 17.3 3.87543 17.2088 3.71321 17.0466C3.55099 16.8844 3.45986 16.6644 3.45986 16.435V12.975C3.45986 12.7456 3.36872 12.5256 3.20651 12.3633C3.04429 12.2011 2.82427 12.11 2.59486 12.11C2.36545 12.11 2.14543 12.2011 1.98321 12.3633C1.82099 12.5256 1.72986 12.7456 1.72986 12.975V16.435C1.72986 17.1232 2.00326 17.7833 2.48992 18.2699C2.97657 18.7566 3.63662 19.03 4.32486 19.03H16.4349C17.1231 19.03 17.7831 18.7566 18.2698 18.2699C18.7565 17.7833 19.0299 17.1232 19.0299 16.435V12.975C19.0299 12.7456 18.9387 12.5256 18.7765 12.3633C18.6143 12.2011 18.3943 12.11 18.1649 12.11ZM9.76571 13.5891C9.84797 13.6679 9.94498 13.7296 10.0512 13.7708C10.1547 13.8165 10.2667 13.8402 10.3799 13.8402C10.4931 13.8402 10.605 13.8165 10.7086 13.7708C10.8147 13.7296 10.9117 13.6679 10.994 13.5891L14.454 10.1291C14.6169 9.96625 14.7084 9.74533 14.7084 9.51498C14.7084 9.28463 14.6169 9.06371 14.454 8.90083C14.2911 8.73795 14.0702 8.64644 13.8399 8.64644C13.6095 8.64644 13.3886 8.73795 13.2257 8.90083L11.2449 10.8903V2.59498C11.2449 2.36557 11.1537 2.14555 10.9915 1.98333C10.8293 1.82111 10.6093 1.72998 10.3799 1.72998C10.1504 1.72998 9.93043 1.82111 9.76821 1.98333C9.60599 2.14555 9.51486 2.36557 9.51486 2.59498V10.8903L7.53401 8.90083C7.45336 8.82018 7.35761 8.7562 7.25223 8.71255C7.14686 8.66891 7.03392 8.64644 6.91986 8.64644C6.8058 8.64644 6.69286 8.66891 6.58748 8.71255C6.48211 8.7562 6.38636 8.82018 6.30571 8.90083C6.22506 8.98148 6.16108 9.07723 6.11743 9.1826C6.07378 9.28798 6.05132 9.40092 6.05132 9.51498C6.05132 9.62904 6.07378 9.74198 6.11743 9.84736C6.16108 9.95273 6.22506 10.0485 6.30571 10.1291L9.76571 13.5891Z" fill="#FCDA64"/>
</svg>
