<svg width="13" height="13" viewBox="0 0 13 13" fill="none" xmlns="http://www.w3.org/2000/svg">
<path d="M1.76723 12.0785H9.34109C9.81052 12.0772 10.2602 11.8897 10.5916 11.5571C10.9229 11.2246 11.1087 10.7742 11.1083 10.3047V6.49911C11.1083 6.3652 11.0551 6.23677 10.9604 6.14208C10.8657 6.04739 10.7373 5.99419 10.6034 5.99419C10.4695 5.99419 10.3411 6.04739 10.2464 6.14208C10.1517 6.23677 10.0985 6.3652 10.0985 6.49911V10.3047C10.0991 10.5064 10.0198 10.7001 9.87778 10.8433C9.73579 10.9866 9.54277 11.0676 9.34109 11.0687H1.76723C1.56555 11.0676 1.37254 10.9866 1.23054 10.8433C1.08855 10.7001 1.00918 10.5064 1.00985 10.3047V2.744C1.00918 2.54232 1.08855 2.34861 1.23054 2.20538C1.37254 2.06216 1.56555 1.98112 1.76723 1.98005H5.55416C5.68808 1.98005 5.81651 1.92685 5.9112 1.83216C6.00589 1.73747 6.05909 1.60904 6.05909 1.47512C6.05909 1.34121 6.00589 1.21278 5.9112 1.11809C5.81651 1.0234 5.68808 0.9702 5.55416 0.9702H1.76723C1.29781 0.971537 0.848088 1.15906 0.516769 1.49161C0.185449 1.82416 -0.00040247 2.27457 6.54436e-07 2.744V10.3047C-0.00040247 10.7742 0.185449 11.2246 0.516769 11.5571C0.848088 11.8897 1.29781 12.0772 1.76723 12.0785Z" fill="#FCDA64"/>
<path d="M4.77409 5.28427L4.37571 7.10906C4.35768 7.19183 4.36076 7.27781 4.38467 7.35908C4.40858 7.44034 4.45256 7.51429 4.51254 7.5741C4.57335 7.63241 4.64733 7.6752 4.72819 7.69884C4.80905 7.72249 4.89443 7.72629 4.97707 7.70992L6.79783 7.31053C6.89237 7.28977 6.97895 7.24227 7.04726 7.17369L11.6491 2.57182C11.7898 2.43116 11.9014 2.26416 11.9776 2.08036C12.0537 1.89656 12.0929 1.69957 12.0929 1.50062C12.0929 1.30168 12.0537 1.10468 11.9776 0.920887C11.9014 0.73709 11.7898 0.570092 11.6491 0.429429C11.3607 0.153809 10.9771 0 10.5782 0C10.1793 0 9.79567 0.153809 9.50725 0.429429L4.91244 5.03585C4.84348 5.10369 4.79546 5.18992 4.77409 5.28427ZM10.2212 1.1439C10.3173 1.05187 10.4452 1.00049 10.5782 1.00049C10.7112 1.00049 10.8391 1.05187 10.9352 1.1439C11.0286 1.23914 11.0809 1.36722 11.0809 1.50062C11.0809 1.63403 11.0286 1.76211 10.9352 1.85735L10.5782 2.21433L9.86423 1.50037L10.2212 1.1439ZM5.72739 5.64479L9.14774 2.21585L9.85464 2.92628L6.43277 6.35622L5.52643 6.55516L5.72739 5.64479Z" fill="#FCDA64"/>
</svg>
