<svg width="15" height="12" viewBox="0 0 15 12" fill="none" xmlns="http://www.w3.org/2000/svg">
<path d="M7.69815 9.41169C6.03804 9.41169 4.6942 8.09047 4.57054 6.41616L2.27463 4.59175C1.97281 4.98108 1.69507 5.39268 1.47095 5.84276C1.42088 5.94459 1.3948 6.0571 1.3948 6.17121C1.3948 6.28531 1.42088 6.39782 1.47095 6.49966C2.65786 8.88082 5.00762 10.4919 7.69815 10.4919C8.28712 10.4919 8.8553 10.4019 9.4029 10.2565L8.2672 9.35296C8.07964 9.39021 7.88917 9.40987 7.69815 9.41169ZM14.5666 10.7192L12.1471 8.79643C12.882 8.15954 13.4865 7.37873 13.9253 6.49943C13.9754 6.3976 14.0015 6.28509 14.0015 6.17098C14.0015 6.05688 13.9754 5.94437 13.9253 5.84253C12.7384 3.46137 10.3887 1.8503 7.69815 1.8503C6.57131 1.8517 5.46278 2.14339 4.4738 2.6987L1.68938 0.485871C1.65307 0.45682 1.61155 0.43541 1.56719 0.422865C1.52283 0.41032 1.4765 0.406886 1.43085 0.412759C1.3852 0.418631 1.34112 0.433696 1.30113 0.457091C1.26114 0.480487 1.22603 0.511754 1.1978 0.549108L0.768169 1.11779C0.711176 1.19317 0.685637 1.28875 0.697171 1.38349C0.708704 1.47824 0.756365 1.56439 0.82967 1.62301L13.7069 11.8563C13.7432 11.8854 13.7847 11.9068 13.8291 11.9193C13.8735 11.9319 13.9198 11.9353 13.9654 11.9294C14.0111 11.9236 14.0552 11.9085 14.0952 11.8851C14.1351 11.8617 14.1703 11.8304 14.1985 11.7931L14.6283 11.2244C14.6853 11.149 14.7108 11.0534 14.6992 10.9586C14.6877 10.8639 14.64 10.7778 14.5666 10.7192ZM10.5456 7.52359L9.68546 6.83992C9.75789 6.62466 9.79632 6.39885 9.79927 6.17109C9.80354 5.83764 9.73169 5.50781 9.5895 5.20808C9.4473 4.90836 9.23873 4.6471 8.98052 4.4453C8.72232 4.2435 8.42168 4.10677 8.10276 4.0461C7.78384 3.98544 7.45553 4.00252 7.14419 4.09599C7.27617 4.27987 7.34757 4.5023 7.34796 4.73083C7.34469 4.80688 7.33339 4.88234 7.31425 4.95587L5.70318 3.67561C6.26281 3.19474 6.96882 2.93105 7.69815 2.9305C8.1121 2.93026 8.52203 3.01392 8.90452 3.17669C9.287 3.33946 9.63453 3.57815 9.92723 3.87912C10.2199 4.18008 10.4521 4.53742 10.6104 4.93069C10.7687 5.32397 10.8501 5.74547 10.8498 6.17109C10.8498 6.65786 10.734 7.11154 10.5456 7.52382V7.52359Z" fill="#FCDA64"/>
</svg>
