<svg width="14" height="10" viewBox="0 0 14 10" fill="none" xmlns="http://www.w3.org/2000/svg">
<path d="M13.471 3.30258C13.4184 3.23256 10.6177 0 7 0C4.66602 0 2.33205 1.29536 0.52905 3.30258C0.188728 3.67472 0 4.16075 0 4.66504C0 5.16932 0.188728 5.65535 0.52905 6.02749C3.13143 8.89829 5.71048 9.33591 7 9.33591C8.28952 9.33591 10.8919 8.87495 13.471 6.02749C13.8113 5.65535 14 5.16932 14 4.66504C14 4.16075 13.8113 3.67472 13.471 3.30258ZM12.6074 5.25145C12.549 5.32147 10.04 8.24477 7 8.16892C4.12337 8.0989 2.02863 5.95164 1.38679 5.25145C1.24081 5.09218 1.15984 4.88399 1.15984 4.66795C1.15984 4.45191 1.24081 4.24372 1.38679 4.08446C2.76967 2.56737 4.85858 1.12031 7 1.16699C9.58488 1.10864 11.913 3.32592 12.6074 4.08446C12.7546 4.24309 12.8364 4.45152 12.8364 4.66795C12.8364 4.88438 12.7546 5.09281 12.6074 5.25145Z" fill="#FCDA64"/>
<path d="M6.99999 2.33397H6.77243C6.74762 2.33647 6.72386 2.3453 6.70343 2.3596C6.683 2.3739 6.66658 2.3932 6.65573 2.41566C6.64293 2.43783 6.63619 2.46299 6.63619 2.4886C6.63619 2.5142 6.64293 2.53936 6.65573 2.56153C6.77288 2.73712 6.84021 2.94119 6.85056 3.15201C6.8609 3.36283 6.81388 3.57252 6.71448 3.75873C6.61509 3.94494 6.46706 4.10071 6.28614 4.20944C6.10523 4.31818 5.89821 4.37581 5.68713 4.3762C5.42119 4.37434 5.16386 4.2817 4.95776 4.11363C4.93647 4.10134 4.91233 4.09486 4.88774 4.09486C4.86316 4.09486 4.83901 4.10134 4.81772 4.11363C4.79398 4.12079 4.77268 4.1344 4.7562 4.15294C4.73972 4.17149 4.7287 4.19423 4.72437 4.21865C4.68873 4.36587 4.66916 4.51651 4.66602 4.66795C4.66602 5.12956 4.8029 5.58081 5.05936 5.96463C5.31582 6.34845 5.68034 6.64761 6.10682 6.82426C6.5333 7.00091 7.00258 7.04713 7.45533 6.95708C7.90808 6.86702 8.32395 6.64473 8.65036 6.31832C8.97678 5.9919 9.19907 5.57603 9.28912 5.12328C9.37918 4.67053 9.33296 4.20125 9.15631 3.77477C8.97965 3.34829 8.6805 2.98378 8.29668 2.72732C7.91286 2.47085 7.46161 2.33397 6.99999 2.33397Z" fill="#FCDA64"/>
</svg>
