<svg width="15" height="22" viewBox="0 0 15 22" fill="none" xmlns="http://www.w3.org/2000/svg">
<path d="M14.0501 11.6737L5.14378 20.8313C4.71424 21.2729 4.01784 21.2729 3.58834 20.8313L2.54956 19.7632C2.12075 19.3223 2.11993 18.6077 2.54773 18.1657L9.60617 10.874L2.54773 3.58231C2.11993 3.14036 2.12075 2.42578 2.54956 1.98487L3.58834 0.916787C4.01789 0.475125 4.71428 0.475125 5.14378 0.916787L14.0501 10.0744C14.4796 10.516 14.4796 11.232 14.0501 11.6737Z" fill="#FCDA64"/>
<path d="M7.34556 11.3047L2.54837 16.2372C2.31701 16.4751 1.94191 16.4751 1.71057 16.2372L1.15106 15.6619C0.920087 15.4245 0.919643 15.0396 1.15007 14.8015L4.95193 10.874L1.15007 6.94651C0.919643 6.70847 0.920087 6.32357 1.15106 6.08609L1.71057 5.51079C1.94193 5.2729 2.31703 5.2729 2.54837 5.51079L7.34554 10.4433C7.5769 10.6812 7.5769 11.0668 7.34556 11.3047Z" fill="white"/>
</svg>
