<svg width="22" height="20" viewBox="0 0 22 20" fill="none" xmlns="http://www.w3.org/2000/svg">
<path d="M1.00604 4.099H20.506C20.9203 4.099 21.256 3.76323 21.256 3.349V1.474C21.256 1.05976 20.9203 0.723999 20.506 0.723999H1.00604C0.591808 0.723999 0.256042 1.05976 0.256042 1.474V3.349C0.256042 3.76323 0.591808 4.099 1.00604 4.099ZM1.00604 11.599H20.506C20.9203 11.599 21.256 11.2632 21.256 10.849V8.974C21.256 8.55976 20.9203 8.224 20.506 8.224H1.00604C0.591808 8.224 0.256042 8.55976 0.256042 8.974V10.849C0.256042 11.2632 0.591808 11.599 1.00604 11.599ZM1.00604 19.099H20.506C20.9203 19.099 21.256 18.7632 21.256 18.349V16.474C21.256 16.0598 20.9203 15.724 20.506 15.724H1.00604C0.591808 15.724 0.256042 16.0598 0.256042 16.474V18.349C0.256042 18.7632 0.591808 19.099 1.00604 19.099Z" fill="#FCDA64"/>
</svg>
