<svg width="27" height="27" viewBox="0 0 27 27" fill="none" xmlns="http://www.w3.org/2000/svg">
<path d="M25.6935 12.1935H14.8065V1.30645C14.8065 0.584759 14.2217 0 13.5 0C12.7783 0 12.1935 0.584759 12.1935 1.30645V12.1935H1.30645C0.584759 12.1935 0 12.7783 0 13.5C0 14.2217 0.584759 14.8065 1.30645 14.8065H12.1935V25.6935C12.1935 26.4152 12.7783 27 13.5 27C14.2217 27 14.8065 26.4152 14.8065 25.6935V14.8065H25.6935C26.4152 14.8065 27 14.2217 27 13.5C27 12.7783 26.4152 12.1935 25.6935 12.1935Z" fill="white"/>
</svg>
