<svg width="20" height="20" viewBox="0 0 20 20" fill="none" xmlns="http://www.w3.org/2000/svg">
<path d="M11.5625 14.9971H8.4375C7.91797 14.9971 7.5 14.5791 7.5 14.0596V7.49707H4.07422C3.37891 7.49707 3.03125 6.65723 3.52344 6.16504L9.46484 0.219727C9.75781 -0.0732422 10.2383 -0.0732422 10.5312 0.219727L16.4766 6.16504C16.9688 6.65723 16.6211 7.49707 15.9258 7.49707H12.5V14.0596C12.5 14.5791 12.082 14.9971 11.5625 14.9971ZM20 14.6846V19.0596C20 19.5791 19.582 19.9971 19.0625 19.9971H0.9375C0.417969 19.9971 0 19.5791 0 19.0596V14.6846C0 14.165 0.417969 13.7471 0.9375 13.7471H6.25V14.0596C6.25 15.2666 7.23047 16.2471 8.4375 16.2471H11.5625C12.7695 16.2471 13.75 15.2666 13.75 14.0596V13.7471H19.0625C19.582 13.7471 20 14.165 20 14.6846ZM15.1562 18.1221C15.1562 17.6924 14.8047 17.3408 14.375 17.3408C13.9453 17.3408 13.5938 17.6924 13.5938 18.1221C13.5938 18.5518 13.9453 18.9033 14.375 18.9033C14.8047 18.9033 15.1562 18.5518 15.1562 18.1221ZM17.6562 18.1221C17.6562 17.6924 17.3047 17.3408 16.875 17.3408C16.4453 17.3408 16.0938 17.6924 16.0938 18.1221C16.0938 18.5518 16.4453 18.9033 16.875 18.9033C17.3047 18.9033 17.6562 18.5518 17.6562 18.1221Z" fill="black"/>
</svg>
