<svg width="34" height="35" viewBox="0 0 34 35" fill="none" xmlns="http://www.w3.org/2000/svg">
<g filter="url(#filter0_d_446_220)">
<path d="M26.1203 4.28476C23.7001 1.86293 20.482 0.528451 17.0534 0.526974C9.98808 0.526974 4.23837 6.27485 4.23554 13.3398C4.23472 15.5981 4.82479 17.8026 5.94637 19.7458L4.12793 26.3856L10.9228 24.6038C12.7949 25.6248 14.9028 26.1628 17.0478 26.1637H17.0533H17.0534C24.1175 26.1637 29.8681 20.4148 29.8711 13.3502C29.8722 9.92618 28.5401 6.70676 26.1203 4.28476ZM17.0534 23.9996H17.0492C15.1372 23.9986 13.2622 23.4852 11.6268 22.5148L11.2376 22.2841L7.2054 23.3413L8.28195 19.4113L8.02837 19.0084C6.96184 17.3126 6.39881 15.3529 6.39961 13.3406C6.40196 7.46847 11.1809 2.69119 17.0574 2.69119C19.9031 2.69237 22.5777 3.8016 24.5893 5.81455C26.6007 7.82748 27.7076 10.5034 27.7068 13.3493C27.7043 19.2216 22.9252 23.9996 17.0534 23.9996Z" fill="#E0E0E0"/>
<path d="M4.7168 25.6488L6.45217 19.3124C5.38155 17.458 4.81854 15.354 4.81922 13.1993C4.82202 6.45716 10.3091 0.972006 17.0511 0.972006C20.3233 0.973483 23.3944 2.24693 25.7035 4.5582C28.0131 6.86944 29.2843 9.94158 29.2829 13.2088C29.2801 19.9511 23.7927 25.4367 17.0516 25.4367C17.0511 25.4367 17.0519 25.4367 17.0516 25.4367H17.0461C14.9991 25.4361 12.9876 24.9222 11.2012 23.9486L4.7168 25.6488Z" fill="url(#paint0_linear_446_220)"/>
<path fill-rule="evenodd" clip-rule="evenodd" d="M13.8858 7.90014C13.6486 7.37291 13.399 7.36236 13.1734 7.35313C12.9888 7.34522 12.7776 7.3457 12.5667 7.3457C12.3556 7.3457 12.0125 7.42503 11.7225 7.74183C11.4322 8.05863 10.6143 8.82448 10.6143 10.3821C10.6143 11.9398 11.7489 13.445 11.907 13.6564C12.0653 13.8675 14.0972 17.1661 17.3151 18.4351C19.9895 19.4897 20.5337 19.2799 21.1142 19.2271C21.6947 19.1744 22.9873 18.4615 23.2511 17.7221C23.515 16.983 23.515 16.3494 23.4359 16.217C23.3567 16.085 23.1456 16.0059 22.829 15.8476C22.5123 15.6893 20.9559 14.9232 20.6657 14.8177C20.3754 14.7122 20.1643 14.6594 19.9532 14.9764C19.7422 15.293 19.1358 16.0059 18.9511 16.217C18.7664 16.4286 18.5817 16.4549 18.265 16.2966C17.9484 16.1378 16.9287 15.8039 15.7191 14.7253C14.778 13.8863 14.1425 12.8499 13.9578 12.533C13.7731 12.2164 13.938 12.0448 14.0969 11.887C14.239 11.7452 14.4135 11.5174 14.5718 11.3326C14.7298 11.1477 14.7826 11.0158 14.8881 10.8047C14.9937 10.5933 14.9409 10.4084 14.8617 10.2501C14.7826 10.0918 14.1673 8.52615 13.8858 7.90014Z" fill="white"/>
<path d="M26.0153 4.24404C23.6229 1.85001 20.4417 0.530878 17.0525 0.529379C10.0683 0.529379 4.38457 6.21127 4.38176 13.1951C4.38093 15.4276 4.96423 17.6067 6.07293 19.5276L4.27539 26.0911L10.9923 24.3298C12.8429 25.3391 14.9266 25.8709 17.047 25.8718H17.0524H17.0525C24.0355 25.8718 29.72 20.1889 29.723 13.2053C29.7242 9.8207 28.4073 6.63824 26.0153 4.24404ZM17.0525 23.7325H17.0483C15.1583 23.7315 13.3048 23.2241 11.6882 22.2648L11.3034 22.0367L7.31752 23.0818L8.3817 19.197L8.13103 18.7987C7.07676 17.1224 6.52018 15.1851 6.521 13.196C6.52331 7.39123 11.2474 2.66879 17.0564 2.66879C19.8695 2.66996 22.5134 3.76645 24.5019 5.75629C26.4902 7.74613 27.5844 10.3913 27.5836 13.2046C27.5811 19.0094 22.8569 23.7325 17.0525 23.7325Z" fill="white"/>
</g>
<defs>
<filter id="filter0_d_446_220" x="0.12793" y="0.526974" width="33.7432" height="33.8586" filterUnits="userSpaceOnUse" color-interpolation-filters="sRGB">
<feFlood flood-opacity="0" result="BackgroundImageFix"/>
<feColorMatrix in="SourceAlpha" type="matrix" values="0 0 0 0 0 0 0 0 0 0 0 0 0 0 0 0 0 0 127 0" result="hardAlpha"/>
<feOffset dy="4"/>
<feGaussianBlur stdDeviation="2"/>
<feComposite in2="hardAlpha" operator="out"/>
<feColorMatrix type="matrix" values="0 0 0 0 0 0 0 0 0 0 0 0 0 0 0 0 0 0 0.25 0"/>
<feBlend mode="normal" in2="BackgroundImageFix" result="effect1_dropShadow_446_220"/>
<feBlend mode="normal" in="SourceGraphic" in2="effect1_dropShadow_446_220" result="shape"/>
</filter>
<linearGradient id="paint0_linear_446_220" x1="16.9999" y1="25.6488" x2="16.9999" y2="0.972047" gradientUnits="userSpaceOnUse">
<stop stop-color="#20B038"/>
<stop offset="1" stop-color="#60D66A"/>
</linearGradient>
</defs>
</svg>
