<svg width="55" height="55" viewBox="0 0 55 55" fill="none" xmlns="http://www.w3.org/2000/svg">
<path d="M27.5 19.4792C32.5625 19.4792 36.6666 15.3752 36.6666 10.3125C36.6666 5.24993 32.5625 1.14587 27.5 1.14587C22.4374 1.14587 18.3333 5.24993 18.3333 10.3125C18.3333 15.3752 22.4374 19.4792 27.5 19.4792Z" fill="#78EB7B"/>
<path d="M21.0192 16.7933C19.3494 15.0644 18.4255 12.7489 18.4463 10.3454C18.4672 7.94196 19.4313 5.64284 21.1308 3.94327C22.8304 2.2437 25.1295 1.27965 27.533 1.25877C29.9365 1.23788 32.252 2.16183 33.9809 3.83162L21.0192 16.7933Z" fill="#C9F7CA"/>
<path d="M27.5 19.4792C32.5625 19.4792 36.6666 15.3752 36.6666 10.3125C36.6666 5.24993 32.5625 1.14587 27.5 1.14587C22.4374 1.14587 18.3333 5.24993 18.3333 10.3125C18.3333 15.3752 22.4374 19.4792 27.5 19.4792Z" stroke="#191919" stroke-linecap="round" stroke-linejoin="round"/>
<path d="M26.3542 49.2708C26.3542 46.2319 25.1469 43.3173 22.998 41.1686C20.8492 39.0198 17.9348 37.8125 14.8958 37.8125C11.8569 37.8125 8.94243 39.0198 6.79358 41.1686C4.6447 43.3173 3.4375 46.2319 3.4375 49.2708H26.3542Z" fill="#66E1FF"/>
<path d="M51.5625 49.2708C51.5625 46.2319 50.3552 43.3173 48.2063 41.1686C46.0577 39.0198 43.1431 37.8125 40.1041 37.8125C37.0652 37.8125 34.1506 39.0198 32.002 41.1686C29.8531 43.3173 28.6458 46.2319 28.6458 49.2708H51.5625Z" fill="#FF808C"/>
<path d="M17.1875 38.0417C15.5225 37.7019 13.8028 37.7365 12.1529 38.1435C10.503 38.5502 8.96422 39.3189 7.64805 40.3936C6.33188 41.4687 5.27125 42.8228 4.54302 44.358C3.81478 45.8934 3.43716 47.5716 3.4375 49.2709H17.1875" stroke="#191919" stroke-linecap="round" stroke-linejoin="round"/>
<path d="M37.8125 38.0417C39.4774 37.7019 41.1973 37.7365 42.8471 38.1435C44.4971 38.5502 46.0357 39.3189 47.352 40.3936C48.6681 41.4687 49.7287 42.8228 50.457 44.358C51.1853 45.8934 51.563 47.5716 51.5625 49.2709H37.8125" stroke="#191919" stroke-linecap="round" stroke-linejoin="round"/>
<path d="M27.5 45.8334C30.3476 45.8334 32.6562 43.5247 32.6562 40.6771C32.6562 37.8295 30.3476 35.5209 27.5 35.5209C24.6524 35.5209 22.3438 37.8295 22.3438 40.6771C22.3438 43.5247 24.6524 45.8334 27.5 45.8334Z" fill="#FFDDA1" stroke="#191919" stroke-linecap="round" stroke-linejoin="round"/>
<path d="M34.375 53.8542C34.067 52.2521 33.2138 50.8062 31.9607 49.7617C30.7074 48.7174 29.1312 48.139 27.5 48.125C25.8647 48.1241 24.2809 48.697 23.0246 49.7441C21.7682 50.7909 20.919 52.2454 20.625 53.8542H34.375Z" fill="#66E1FF" stroke="#191919" stroke-linecap="round" stroke-linejoin="round"/>
<path d="M17.1875 28.6458C18.7417 28.6476 20.2797 28.3309 21.7067 27.7154C21.5128 26.3008 20.8832 24.9817 19.9055 23.9413C18.9277 22.9007 17.6502 22.1905 16.2505 21.909C14.8507 21.6276 13.398 21.789 12.0941 22.3708C10.7901 22.9526 9.69972 23.9259 8.97418 25.1556C10.0382 26.2597 11.3139 27.1381 12.7252 27.7376C14.1364 28.3374 15.6541 28.6463 17.1875 28.6458Z" fill="#C77F67" stroke="#191919" stroke-linecap="round" stroke-linejoin="round"/>
<path d="M17.1875 28.6458C15.6541 28.6463 14.1364 28.3374 12.7251 27.7377C11.3139 27.1382 10.0381 26.2598 8.97415 25.1556C8.43698 26.0663 8.11709 27.0887 8.0394 28.1433C7.96171 29.1977 8.12827 30.256 8.52617 31.2357C8.92405 32.2151 9.54255 33.0898 10.3335 33.7916C11.1245 34.4933 12.0667 35.0029 13.0868 35.2811C14.1069 35.5593 15.1774 35.5985 16.2151 35.3957C17.2528 35.1927 18.2297 34.7531 19.0699 34.1112C19.91 33.4693 20.5908 32.6423 21.0593 31.6942C21.5277 30.7464 21.7712 29.7032 21.7708 28.6458C21.7704 28.3346 21.7489 28.0239 21.7066 27.7154C20.2796 28.331 18.7416 28.6477 17.1875 28.6458Z" fill="#FFDDA1" stroke="#191919" stroke-linecap="round" stroke-linejoin="round"/>
<path d="M40.1042 21.7709C39.1802 21.7712 38.2656 21.9535 37.4119 22.3073C36.5585 22.6611 35.7832 23.1796 35.1301 23.8331C34.477 24.4867 33.9591 25.2625 33.6057 26.1161C33.2523 26.9697 33.0708 27.8846 33.071 28.8086V29.9682C34.4057 29.9663 35.7246 29.6778 36.938 29.1219C38.1514 28.5659 39.2313 27.7558 40.1042 26.7461C40.9773 27.7556 42.0571 28.5659 43.2706 29.1216C44.4838 29.6776 45.8026 29.9663 47.1373 29.9682V28.8086C47.1375 27.8846 46.956 26.9697 46.6026 26.1161C46.2493 25.2625 45.7314 24.4867 45.0782 23.8331C44.4251 23.1796 43.6498 22.6611 42.7964 22.3073C41.9428 21.9535 41.0282 21.7712 40.1042 21.7709Z" fill="#C77F67"/>
<path d="M40.1042 26.7461C38.5321 28.5616 36.3211 29.7014 33.9304 29.9292C34.0812 31.4619 34.7967 32.8839 35.9379 33.9183C37.0789 34.9526 38.5639 35.5255 40.1042 35.5255C41.6444 35.5255 43.1294 34.9526 44.2704 33.9183C45.4117 32.8839 46.1271 31.4619 46.2779 29.9292C43.8873 29.7014 41.6763 28.5616 40.1042 26.7461Z" fill="#FFDDA1"/>
<path d="M48.4504 35.8508C47.5349 34.3484 47.0786 32.6111 47.1373 30.8527V28.8085C47.1373 26.9431 46.3964 25.1542 45.0773 23.8354C43.7585 22.5164 41.9696 21.7754 40.1042 21.7754C38.239 21.7754 36.4499 22.5164 35.131 23.8354C33.812 25.1542 33.0711 26.9431 33.0711 28.8085V30.8527C33.1297 32.6111 32.6735 34.3484 31.7579 35.8508" stroke="#191919" stroke-linecap="round" stroke-linejoin="round"/>
<path d="M33.071 29.9705C34.4059 29.9684 35.7248 29.6792 36.9382 29.123C38.1517 28.5666 39.2313 27.756 40.1042 26.7461C40.9771 27.756 42.0567 28.5666 43.2701 29.123C44.4835 29.6792 45.8024 29.9684 47.1373 29.9705" stroke="#191919" stroke-linecap="round" stroke-linejoin="round"/>
<path d="M33.9304 29.9292C34.084 31.4603 34.8006 32.8797 35.9416 33.9121C37.0826 34.9445 38.5665 35.5161 40.1053 35.5161C41.6442 35.5161 43.128 34.9445 44.269 33.9121C45.4101 32.8797 46.1267 31.4603 46.2802 29.9292" stroke="#191919" stroke-linecap="round" stroke-linejoin="round"/>
<path d="M26.4869 12.288C26.4869 11.8933 26.5509 11.5467 26.6789 11.248C26.8069 10.9493 26.9722 10.6827 27.1749 10.448C27.3776 10.2133 27.5909 9.99467 27.8149 9.792C28.0496 9.58933 28.2682 9.392 28.4709 9.2C28.6736 9.008 28.8389 8.80533 28.9669 8.592C29.0949 8.37867 29.1589 8.13867 29.1589 7.872C29.1589 7.424 28.9776 7.06133 28.6149 6.784C28.2522 6.50667 27.7669 6.368 27.1589 6.368C26.5722 6.368 26.0602 6.47467 25.6229 6.688C25.1962 6.90133 24.8389 7.20533 24.5509 7.6L22.9989 6.592C23.4469 5.984 24.0336 5.50933 24.7589 5.168C25.4842 4.816 26.3429 4.64 27.3349 4.64C28.1136 4.64 28.7962 4.75733 29.3829 4.992C29.9696 5.216 30.4282 5.54667 30.7589 5.984C31.0896 6.41067 31.2549 6.93333 31.2549 7.552C31.2549 7.97867 31.1856 8.352 31.0469 8.672C30.9189 8.992 30.7482 9.27467 30.5349 9.52C30.3322 9.75467 30.1136 9.97867 29.8789 10.192C29.6442 10.3947 29.4202 10.5973 29.2069 10.8C29.0042 11.0027 28.8389 11.2213 28.7109 11.456C28.5829 11.6907 28.5189 11.968 28.5189 12.288H26.4869ZM27.5109 16.112C27.1376 16.112 26.8282 15.9893 26.5829 15.744C26.3482 15.4987 26.2309 15.2053 26.2309 14.864C26.2309 14.5227 26.3482 14.2347 26.5829 14C26.8282 13.7547 27.1376 13.632 27.5109 13.632C27.8842 13.632 28.1882 13.7547 28.4229 14C28.6576 14.2347 28.7749 14.5227 28.7749 14.864C28.7749 15.2053 28.6576 15.4987 28.4229 15.744C28.1882 15.9893 27.8842 16.112 27.5109 16.112Z" fill="black"/>
</svg>
