<svg width="55" height="55" viewBox="0 0 55 55" fill="none" xmlns="http://www.w3.org/2000/svg">
<path d="M27.5 55C42.688 55 55 42.688 55 27.5C55 12.312 42.688 0 27.5 0C12.312 0 0 12.312 0 27.5C0 42.688 12.312 55 27.5 55Z" fill="#25B7D3"/>
<path d="M41.849 38.15L37.576 31.7825C37.4045 31.8585 37.2655 31.9515 37.183 32.0745C36.7165 32.771 37.7555 34.711 37.165 35.3015C36.574 35.8915 34.6345 34.853 33.9375 35.3195C33.246 35.7825 33.4675 37.973 32.6895 38.2955C32.1605 38.5145 31.332 37.7685 30.596 37.342L34.4635 43.1055C34.557 43.2443 34.6878 43.3539 34.8408 43.4217C34.9938 43.4896 35.1628 43.5129 35.3285 43.489C35.4941 43.4652 35.6497 43.3951 35.7773 43.2868C35.9049 43.1786 35.9995 43.0365 36.05 42.877L36.991 39.889C37.0516 39.6964 37.176 39.5301 37.3437 39.4176C37.5113 39.3051 37.7123 39.253 37.9135 39.27L41.0355 39.532C41.2024 39.546 41.3699 39.5126 41.5187 39.4357C41.6675 39.3587 41.7915 39.2413 41.8765 39.0969C41.9615 38.9526 42.004 38.7872 41.9992 38.6197C41.9943 38.4523 41.9423 38.2891 41.849 38.15Z" fill="#DF2C2C"/>
<path d="M22.1245 38.296C21.3465 37.9735 21.568 35.7825 20.8765 35.3195C20.1795 34.853 18.24 35.892 17.649 35.3015C17.0585 34.711 18.0975 32.771 17.631 32.0745C17.552 31.9565 17.42 31.866 17.2575 31.792L12.99 38.151C12.8964 38.2901 12.8441 38.4528 12.839 38.6203C12.834 38.7879 12.8764 38.9535 12.9614 39.098C13.0464 39.2424 13.1705 39.36 13.3194 39.4369C13.4683 39.5139 13.636 39.5472 13.803 39.533L16.925 39.271C17.1262 39.2541 17.3272 39.3061 17.4948 39.4187C17.6625 39.5312 17.7869 39.6974 17.8475 39.89L18.7885 42.878C18.8387 43.0378 18.9331 43.1802 19.0607 43.2887C19.1883 43.3972 19.344 43.4675 19.5099 43.4914C19.6757 43.5152 19.8449 43.4918 19.9979 43.4237C20.151 43.3556 20.2817 43.2456 20.375 43.1065L24.2575 37.321C23.5115 37.743 22.663 38.5195 22.1245 38.296Z" fill="#DF2C2C"/>
<path d="M41.2075 25.5435C41.2075 26.397 39.099 27.0325 38.9395 27.839C38.7745 28.67 40.477 30.062 40.1595 30.8265C39.8375 31.6045 37.6465 31.383 37.1835 32.0745C36.717 32.771 37.756 34.711 37.1655 35.3015C36.575 35.892 34.635 34.853 33.9385 35.3195C33.247 35.7825 33.4685 37.973 32.6905 38.2955C31.9255 38.6125 30.534 36.9105 29.703 37.075C28.8965 37.2345 28.261 39.343 27.408 39.343C26.5545 39.343 25.919 37.2345 25.1125 37.075C24.2815 36.9105 22.8895 38.6125 22.125 38.2955C21.347 37.973 21.5685 35.782 20.877 35.319C20.1805 34.8525 18.2405 35.8915 17.65 35.301C17.0595 34.7105 18.0985 32.7705 17.632 32.074C17.169 31.3825 14.9785 31.604 14.656 30.826C14.339 30.0615 16.041 28.6695 15.876 27.8385C15.717 27.032 13.6085 26.3965 13.6085 25.5435C13.6085 24.69 15.717 24.0545 15.8765 23.248C16.041 22.417 14.339 21.025 14.656 20.2605C14.9785 19.4825 17.1695 19.704 17.6325 19.0125C18.099 18.316 17.06 16.376 17.6505 15.7855C18.2405 15.195 20.1805 16.234 20.8775 15.7675C21.569 15.3045 21.3475 13.114 22.1255 12.7915C22.89 12.4745 24.282 14.1765 25.113 14.012C25.9195 13.8525 26.555 11.744 27.408 11.744C28.2615 11.744 28.897 13.8525 29.703 14.012C30.5345 14.1765 31.9265 12.4745 32.691 12.7915C33.469 13.114 33.2475 15.305 33.939 15.768C34.6355 16.2345 36.5755 15.1955 37.166 15.786C37.756 16.3765 36.7175 18.3165 37.184 19.013C37.647 19.7045 39.8375 19.483 40.16 20.261C40.477 21.0255 38.775 22.4175 38.9395 23.2485C39.099 24.055 41.2075 24.6905 41.2075 25.5435Z" fill="#F3B607"/>
<path d="M37.166 15.786C36.5755 15.1955 34.6355 16.2345 33.9385 15.768C33.247 15.305 33.4685 13.114 32.6905 12.7915C31.9255 12.4745 30.534 14.1765 29.7025 14.012C28.896 13.8525 28.2605 11.744 27.4075 11.744C26.5545 11.744 25.9185 13.8525 25.1125 14.012C24.2815 14.1765 22.8895 12.4745 22.125 12.7915C21.347 13.114 21.5685 15.305 20.877 15.7675C20.1805 16.234 18.2405 15.1945 17.65 15.7855C17.059 16.376 18.098 18.316 17.632 19.0125C17.169 19.704 14.978 19.4825 14.6555 20.2605C14.3385 21.025 16.0405 22.417 15.8755 23.248C15.7165 24.0545 13.6075 24.69 13.6075 25.5435C13.6075 26.397 15.716 27.0325 15.8755 27.839C16.04 28.67 14.338 30.062 14.655 30.8265C14.978 31.6045 17.1685 31.3835 17.6315 32.0745C18.098 32.771 17.0585 34.711 17.6495 35.3015C17.6675 35.3195 17.6905 35.3315 17.7105 35.3465L37.2105 15.8465C37.1955 15.8265 37.184 15.8035 37.166 15.786Z" fill="#FACB1B"/>
<path d="M27.4075 34.869C32.5575 34.869 36.7325 30.694 36.7325 25.5435C36.7325 20.3935 32.5575 16.218 27.4075 16.218C22.2575 16.218 18.082 20.393 18.082 25.5435C18.082 30.6935 22.2575 34.869 27.4075 34.869Z" fill="#FBE158"/>
<path d="M27.4075 16.2185C22.257 16.2185 18.082 20.3935 18.082 25.544C18.0792 28.0062 19.0535 30.3689 20.791 32.1135L33.977 18.9275C32.2324 17.1898 29.8699 16.2155 27.4075 16.2185Z" fill="#FBEC9A"/>
<path d="M27.4075 31.627C30.7675 31.627 33.491 28.9035 33.491 25.5435C33.491 22.1835 30.7675 19.46 27.4075 19.46C24.0475 19.46 21.324 22.1835 21.324 25.5435C21.324 28.9035 24.0475 31.627 27.4075 31.627Z" fill="white"/>
</svg>
