<svg width="49" height="49" viewBox="0 0 49 49" fill="none" xmlns="http://www.w3.org/2000/svg">
<path d="M45.9375 47.9791C44.9426 46.4485 43.5811 45.1907 41.9766 44.3199C40.3722 43.4491 38.5755 42.993 36.75 42.993C34.9245 42.993 33.1278 43.4491 31.5234 44.3199C29.9189 45.1907 28.5574 46.4485 27.5625 47.9791" fill="#66E1FF"/>
<path d="M45.9375 47.9791C44.9426 46.4485 43.5811 45.1907 41.9766 44.3199C40.3722 43.4491 38.5755 42.993 36.75 42.993C34.9245 42.993 33.1278 43.4491 31.5234 44.3199C29.9189 45.1907 28.5574 46.4485 27.5625 47.9791" stroke="#191919" stroke-linecap="round" stroke-linejoin="round"/>
<path d="M21.4375 47.9791C20.4426 46.4485 19.0811 45.1907 17.4766 44.3199C15.8722 43.4491 14.0755 42.993 12.25 42.993C10.4245 42.993 8.62785 43.4491 7.02336 44.3199C5.41887 45.1907 4.05736 46.4485 3.0625 47.9791" fill="#66E1FF"/>
<path d="M21.4375 47.9791C20.4426 46.4485 19.0811 45.1907 17.4766 44.3199C15.8722 43.4491 14.0755 42.993 12.25 42.993C10.4245 42.993 8.62785 43.4491 7.02336 44.3199C5.41887 45.1907 4.05736 46.4485 3.0625 47.9791" stroke="#191919" stroke-linecap="round" stroke-linejoin="round"/>
<path d="M33.6875 22.4584C32.6926 20.9277 31.3311 19.6699 29.7266 18.7991C28.1222 17.9284 26.3255 17.4723 24.5 17.4723C22.6745 17.4723 20.8778 17.9284 19.2734 18.7991C17.6689 19.6699 16.3074 20.9277 15.3125 22.4584" fill="#66E1FF"/>
<path d="M33.6875 22.4584C32.6926 20.9277 31.3311 19.6699 29.7266 18.7991C28.1222 17.9284 26.3255 17.4723 24.5 17.4723C22.6745 17.4723 20.8778 17.9284 19.2734 18.7991C17.6689 19.6699 16.3074 20.9277 15.3125 22.4584" stroke="#191919" stroke-linecap="round" stroke-linejoin="round"/>
<path d="M31.1771 6.75793H31.1558" stroke="#191919" stroke-linecap="round" stroke-linejoin="round"/>
<path d="M31.1559 6.75795C29.782 7.3487 28.3026 7.65432 26.8071 7.65629C25.3277 7.65862 23.8631 7.36135 22.5016 6.78238C21.1402 6.20341 19.91 5.35474 18.8854 4.28753C19.5833 3.09996 20.6341 2.15958 21.8915 1.59738C23.149 1.03518 24.5505 0.879139 25.9008 1.151C27.2511 1.42286 28.4831 2.10909 29.425 3.1141C30.3669 4.11911 30.972 5.39286 31.1559 6.75795Z" fill="#C77F67" stroke="#191919" stroke-linecap="round" stroke-linejoin="round"/>
<path d="M31.2375 7.65623C31.2375 8.67651 31.0022 9.68305 30.5499 10.5976C30.0977 11.5122 29.4406 12.3101 28.6297 12.9294C27.8189 13.5487 26.8762 13.9727 25.8749 14.1684C24.8735 14.3641 23.8405 14.3263 22.8562 14.0578C21.8719 13.7894 20.9627 13.2975 20.1994 12.6206C19.436 11.9436 18.8391 11.0997 18.4549 10.1545C18.0708 9.20928 17.9098 8.18822 17.9845 7.17067C18.0591 6.15312 18.3674 5.16649 18.8854 4.28748C19.91 5.35468 21.1401 6.20335 22.5016 6.78232C23.8631 7.36129 25.3277 7.65856 26.8071 7.65623C28.3025 7.65426 29.782 7.34864 31.1558 6.75789C31.2151 7.05393 31.2416 7.35406 31.2375 7.65623Z" fill="#FFBC44" stroke="#191919" stroke-linecap="round" stroke-linejoin="round"/>
<path d="M18.9271 32.2788H18.9058" stroke="#191919" stroke-linecap="round" stroke-linejoin="round"/>
<path d="M18.9059 32.2788C16.8522 33.1647 14.5771 33.4029 12.3845 32.9614C10.1919 32.52 8.18624 31.42 6.63544 29.8084C7.33249 28.6197 8.38316 27.6781 9.6409 27.1151C10.8986 26.5521 12.3007 26.3957 13.6516 26.6677C15.0025 26.9397 16.2349 27.6265 17.1768 28.6323C18.1186 29.6382 18.7231 30.9129 18.9059 32.2788Z" fill="#C77F67" stroke="#191919" stroke-linecap="round" stroke-linejoin="round"/>
<path d="M18.9875 33.1771C18.9875 34.1974 18.7522 35.2039 18.2999 36.1185C17.8477 37.0331 17.1906 37.831 16.3797 38.4503C15.5689 39.0696 14.6262 39.4936 13.6249 39.6893C12.6235 39.885 11.5905 39.8472 10.6062 39.5787C9.62186 39.3103 8.7127 38.8184 7.94936 38.1414C7.18602 37.4645 6.58909 36.6206 6.20494 35.6754C5.8208 34.7302 5.6598 33.7091 5.73447 32.6915C5.80913 31.674 6.11743 30.6874 6.63543 29.8083C8.18639 31.4197 10.1921 32.5196 12.3846 32.961C14.5771 33.4024 16.8521 33.1644 18.9058 32.2788C18.9651 32.5748 18.9916 32.8749 18.9875 33.1771Z" fill="#FFDDA1" stroke="#191919" stroke-linecap="round" stroke-linejoin="round"/>
<path d="M43.4271 32.2788H43.4058" stroke="#191919" stroke-linecap="round" stroke-linejoin="round"/>
<path d="M43.4059 32.2787C41.3522 33.1646 39.0771 33.4028 36.8845 32.9614C34.6919 32.5199 32.6862 31.4199 31.1354 29.8083C31.8333 28.6207 32.8841 27.6803 34.1415 27.1181C35.399 26.5559 36.8005 26.3999 38.1508 26.6718C39.5011 26.9436 40.7331 27.6298 41.675 28.6348C42.6169 29.6399 43.222 30.9136 43.4059 32.2787Z" fill="#C77F67" stroke="#191919" stroke-linecap="round" stroke-linejoin="round"/>
<path d="M43.4875 33.1771C43.4875 34.1974 43.2522 35.2039 42.7999 36.1185C42.3477 37.0331 41.6906 37.831 40.8798 38.4503C40.0689 39.0696 39.1262 39.4936 38.1249 39.6893C37.1235 39.885 36.0905 39.8472 35.1062 39.5787C34.1219 39.3103 33.2127 38.8184 32.4494 38.1414C31.686 37.4645 31.0891 36.6206 30.7049 35.6754C30.3208 34.7302 30.1598 33.7091 30.2345 32.6915C30.3091 31.674 30.6174 30.6874 31.1354 29.8083C32.6864 31.4197 34.6921 32.5196 36.8846 32.961C39.0771 33.4024 41.3521 33.1644 43.4058 32.2788C43.4651 32.5748 43.4916 32.8749 43.4875 33.1771Z" fill="#FFDDA1" stroke="#191919" stroke-linecap="round" stroke-linejoin="round"/>
</svg>
