<svg width="30" height="18" viewBox="0 0 30 18" fill="none" xmlns="http://www.w3.org/2000/svg">
<path d="M10 17.143H0L1.158 12.511C1.2352 12.2019 1.41357 11.9274 1.66472 11.7314C1.91587 11.5353 2.22538 11.4289 2.544 11.429H7.456C8.112 11.429 8.683 11.875 8.842 12.511L10 17.143ZM20 17.143H10L11.158 12.511C11.2352 12.2019 11.4136 11.9274 11.6647 11.7314C11.9159 11.5353 12.2254 11.4289 12.544 11.429H17.456C18.112 11.429 18.683 11.875 18.842 12.511L20 17.143ZM30 17.143H20L21.158 12.511C21.2352 12.2019 21.4136 11.9274 21.6647 11.7314C21.9159 11.5353 22.2254 11.4289 22.544 11.429H27.456C28.112 11.429 28.683 11.875 28.842 12.511L30 17.143ZM15 11.428H5L6.158 6.79599C6.2352 6.48686 6.41357 6.21243 6.66472 6.01637C6.91587 5.8203 7.22538 5.71387 7.544 5.71399H12.456C13.112 5.71399 13.683 6.15999 13.842 6.79599L15 11.428ZM25 11.428H15L16.158 6.79599C16.2352 6.48686 16.4136 6.21243 16.6647 6.01637C16.9159 5.8203 17.2254 5.71387 17.544 5.71399H22.456C23.112 5.71399 23.683 6.15999 23.842 6.79599L25 11.428Z" fill="white"/>
<path d="M20 5.714H10L11.158 1.082C11.2352 0.772874 11.4136 0.498446 11.6647 0.302381C11.9159 0.106315 12.2254 -0.000122904 12.544 1.06502e-07H17.456C18.112 1.06502e-07 18.683 0.446 18.842 1.082L20 5.714Z" fill="white"/>
<path d="M8.842 12.511C8.7648 12.2019 8.58643 11.9274 8.33528 11.7314C8.08413 11.5353 7.77462 11.4289 7.456 11.429H6.43L6.879 13.226C6.9527 13.5208 6.95823 13.8286 6.89519 14.1259C6.83215 14.4232 6.70219 14.7022 6.51518 14.9417C6.32817 15.1813 6.08902 15.3751 5.81591 15.5083C5.5428 15.6416 5.2429 15.7109 4.939 15.711H0.359L0 17.143H10L8.842 12.511ZM18.842 12.511C18.7648 12.2019 18.5864 11.9274 18.3353 11.7314C18.0841 11.5353 17.7746 11.4289 17.456 11.429H16.43L16.879 13.226C16.9527 13.5208 16.9582 13.8286 16.8952 14.1259C16.8322 14.4232 16.7022 14.7022 16.5152 14.9417C16.3282 15.1813 16.089 15.3751 15.8159 15.5083C15.5428 15.6416 15.2429 15.7109 14.939 15.711H10.359L10 17.143H20L18.842 12.511ZM28.842 12.511C28.7648 12.2019 28.5864 11.9274 28.3353 11.7314C28.0841 11.5353 27.7746 11.4289 27.456 11.429H26.43L26.879 13.226C26.9527 13.5208 26.9582 13.8286 26.8952 14.1259C26.8322 14.4232 26.7022 14.7022 26.5152 14.9417C26.3282 15.1813 26.089 15.3751 25.8159 15.5083C25.5428 15.6416 25.2429 15.7109 24.939 15.711H20.359L20 17.143H30L28.842 12.511ZM13.842 6.79599C13.7648 6.48686 13.5864 6.21243 13.3353 6.01637C13.0841 5.8203 12.7746 5.71387 12.456 5.71399H11.43L11.879 7.51099C11.9527 7.80582 11.9582 8.11357 11.8952 8.41086C11.8322 8.70816 11.7022 8.98717 11.5152 9.22672C11.3282 9.46627 11.089 9.66005 10.8159 9.79335C10.5428 9.92664 10.2429 9.99594 9.939 9.99599H5.359L5 11.428H15L13.842 6.79599ZM23.842 6.79599C23.7648 6.48686 23.5864 6.21243 23.3353 6.01637C23.0841 5.8203 22.7746 5.71387 22.456 5.71399H21.43L21.879 7.51099C21.9527 7.80582 21.9582 8.11357 21.8952 8.41086C21.8322 8.70816 21.7022 8.98717 21.5152 9.22672C21.3282 9.46627 21.089 9.66005 20.8159 9.79335C20.5428 9.92664 20.2429 9.99594 19.939 9.99599H15.359L15 11.428H25L23.842 6.79599Z" fill="#F7E9BB"/>
<path d="M18.842 1.082C18.7648 0.772874 18.5864 0.498446 18.3353 0.302381C18.0841 0.106315 17.7746 -0.000122904 17.456 1.06502e-07H16.43L16.879 1.797C16.9527 2.09183 16.9582 2.39958 16.8952 2.69687C16.8322 2.99417 16.7022 3.27319 16.5152 3.51273C16.3282 3.75228 16.089 3.94606 15.8159 4.07936C15.5428 4.21265 15.2429 4.28195 14.939 4.282H10.359L10 5.714H20L18.842 1.082Z" fill="#F7E9BB"/>
</svg>
